<svg id="SvgjsSvg1001" width="802" height="450" xmlns="http://www.w3.org/2000/svg" version="1.1" xmlns:xlink="http://www.w3.org/1999/xlink" xmlns:svgjs="http://svgjs.com/svgjs"><defs id="SvgjsDefs1002"/><rect id="SvgjsRect1008" width="450" height="450" fill="#d50000"/><path id="SvgjsPath1009" d="M126.79999923706055 270L126.79999923706055 270Q155.99999923706054 270 171.69999923706055 281.1Q187.39999923706054 292.2 187.39999923706054 314.2L187.39999923706054 314.2Q187.39999923706054 326.2 183.09999923706056 334.7Q178.79999923706055 343.2 170.69999923706055 348.5Q162.59999923706056 353.8 150.99999923706054 356.2Q139.39999923706054 358.6 124.79999923706055 358.6L124.79999923706055 358.6L109.39999923706054 358.6L109.39999923706054 410L89.99999923706055 410L89.99999923706055 273.4Q98.19999923706055 271.4 108.29999923706055 270.7Q118.39999923706054 270 126.79999923706055 270ZM128.39999923706054 287L128.39999923706054 287Q115.99999923706055 287 109.39999923706054 287.6L109.39999923706054 287.6L109.39999923706054 342L123.99999923706055 342Q133.99999923706054 342 141.99999923706054 340.7Q149.99999923706054 339.4 155.49999923706054 336.3Q160.99999923706054 333.2 163.99999923706054 327.8Q166.99999923706054 322.4 166.99999923706054 314L166.99999923706054 314Q166.99999923706054 306 163.89999923706054 300.8Q160.79999923706055 295.6 155.49999923706054 292.5Q150.19999923706055 289.4 143.19999923706055 288.2Q136.19999923706055 287 128.39999923706054 287ZM325.39999923706057 340.6L325.39999923706057 340.6Q325.39999923706057 358.6 319.79999923706055 371.9Q314.1999992370605 385.2 303.99999923706054 393.9Q293.79999923706055 402.6 279.59999923706056 406.9Q265.39999923706057 411.2 248.39999923706054 411.2L248.39999923706054 411.2Q239.99999923706054 411.2 229.89999923706054 410.5Q219.79999923706055 409.8 211.59999923706056 407.8L211.59999923706056 407.8L211.59999923706056 273.4Q219.79999923706055 271.4 229.89999923706054 270.7Q239.99999923706054 270 248.39999923706054 270L248.39999923706054 270Q265.39999923706057 270 279.59999923706056 274.3Q293.79999923706055 278.6 303.99999923706054 287.3Q314.1999992370605 296 319.79999923706055 309.3Q325.39999923706057 322.6 325.39999923706057 340.6ZM249.99999923706054 394.2L249.99999923706054 394.2Q277.59999923706056 394.2 291.1999992370605 380.1Q304.79999923706055 366 304.79999923706055 340.6L304.79999923706055 340.6Q304.79999923706055 315.2 291.1999992370605 301.1Q277.59999923706056 287 249.99999923706054 287L249.99999923706054 287Q241.79999923706055 287 237.29999923706055 287.2Q232.79999923706055 287.4 230.99999923706054 287.6L230.99999923706054 287.6L230.99999923706054 393.6Q232.79999923706055 393.8 237.29999923706055 394Q241.79999923706055 394.2 249.99999923706054 394.2ZM373.59999923706056 410L354.1999992370605 410L354.1999992370605 271.4L437.79999923706055 271.4L437.79999923706055 288L373.59999923706056 288L373.59999923706056 329.8L430.59999923706056 329.8L430.59999923706056 346.2L373.59999923706056 346.2L373.59999923706056 410Z " fill="#ffffff"/><path id="SvgjsPath1010" d="M470.00000019073485 358.8L470.00000019073485 341.4L519.4000001907349 341.4L519.4000001907349 358.8L470.00000019073485 358.8ZM561.2000001907348 393.2L625.2000001907348 393.2L625.2000001907348 410L541.8000001907349 410L541.8000001907349 271.4L561.2000001907348 271.4L561.2000001907348 393.2ZM645.6000001907348 410L645.6000001907348 271.4L665.0000001907349 271.4L665.0000001907349 410L645.6000001907348 410ZM736.8000001907349 411.2L736.8000001907349 411.2Q732.6000001907348 411.2 727.7000001907348 411Q722.8000001907349 410.8 717.9000001907349 410.4Q713.0000001907349 410 708.2000001907348 409.4Q703.4000001907349 408.8 699.4000001907349 407.8L699.4000001907349 407.8L699.4000001907349 273.4Q703.4000001907349 272.4 708.2000001907348 271.8Q713.0000001907349 271.2 717.9000001907349 270.8Q722.8000001907349 270.4 727.6000001907348 270.2Q732.4000001907349 270 736.6000001907348 270L736.6000001907348 270Q748.6000001907348 270 759.1000001907348 271.8Q769.6000001907348 273.6 777.3000001907349 277.9Q785.0000001907349 282.2 789.4000001907349 289.2Q793.8000001907349 296.2 793.8000001907349 306.4L793.8000001907349 306.4Q793.8000001907349 317.8 788.4000001907349 325.1Q783.0000001907349 332.4 774.0000001907349 336L774.0000001907349 336Q786.2000001907348 339.6 793.4000001907349 347.4Q800.6000001907348 355.2 800.6000001907348 369.4L800.6000001907348 369.4Q800.6000001907348 390.2 785.3000001907349 400.7Q770.0000001907349 411.2 736.8000001907349 411.2ZM743.6000001907348 345.4L718.6000001907348 345.4L718.6000001907348 394.2Q720.8000001907349 394.4 723.8000001907349 394.6L723.8000001907349 394.6Q726.4000001907349 394.8 729.9000001907349 394.9Q733.4000001907349 395 738.0000001907349 395L738.0000001907349 395Q746.6000001907348 395 754.3000001907349 393.9Q762.0000001907349 392.8 767.8000001907349 390Q773.6000001907348 387.2 777.1000001907348 382.2Q780.6000001907348 377.2 780.6000001907348 369.6L780.6000001907348 369.6Q780.6000001907348 362.8 778.0000001907349 358.1Q775.4000001907349 353.4 770.5000001907349 350.6Q765.6000001907348 347.8 758.8000001907349 346.6Q752.0000001907349 345.4 743.6000001907348 345.4L743.6000001907348 345.4ZM718.6000001907348 287L718.6000001907348 329.8L739.0000001907349 329.8Q746.2000001907348 329.8 752.6000001907348 328.8Q759.0000001907349 327.8 763.7000001907348 325.2Q768.4000001907349 322.6 771.1000001907348 318.4Q773.8000001907349 314.2 773.8000001907349 307.8L773.8000001907349 307.8Q773.8000001907349 301.8 771.0000001907349 297.7Q768.2000001907348 293.6 763.3000001907349 291.1Q758.4000001907349 288.6 751.8000001907349 287.4Q745.2000001907348 286.2 737.8000001907349 286.2L737.8000001907349 286.2Q730.4000001907349 286.2 726.2000001907348 286.4Q722.0000001907349 286.6 718.6000001907348 287L718.6000001907348 287Z " fill="#333333"/></svg>