<svg id="SvgjsSvg1006" width="864" height="450" xmlns="http://www.w3.org/2000/svg" version="1.1" xmlns:xlink="http://www.w3.org/1999/xlink" xmlns:svgjs="http://svgjs.com/svgjs"><defs id="SvgjsDefs1007"/><rect id="SvgjsRect1008" width="430" height="430" x="35" y="10" rx="35" ry="35" style="fill: rgba(0, 0, 0, 0); stroke: rgb(255, 255, 255); stroke-width: 25px;"/><path id="SvgjsPath1009" d="M116.6 249.9999969482422L116.6 249.9999969482422Q147.6 249.9999969482422 164.2 260.8999969482422Q180.8 271.7999969482422 180.8 296.59999694824216L180.8 296.59999694824216Q180.8 321.59999694824216 164 332.6999969482422Q147.2 343.7999969482422 116 343.7999969482422L116 343.7999969482422L106.2 343.7999969482422L106.2 390.1999969482422L75 390.1999969482422L75 253.5999969482422Q85.2 251.5999969482422 96.6 250.79999694824218Q108 249.9999969482422 116.6 249.9999969482422ZM118.6 276.59999694824216L118.6 276.59999694824216Q115.2 276.59999694824216 111.9 276.7999969482422Q108.6 276.9999969482422 106.2 277.1999969482422L106.2 277.1999969482422L106.2 317.1999969482422L116 317.1999969482422Q132.2 317.1999969482422 140.4 312.7999969482422Q148.6 308.3999969482422 148.6 296.3999969482422L148.6 296.3999969482422Q148.6 290.59999694824216 146.5 286.7999969482422Q144.4 282.9999969482422 140.5 280.6999969482422Q136.6 278.3999969482422 131 277.4999969482422Q125.4 276.59999694824216 118.6 276.59999694824216ZM235 277.1999969482422L235 364.7999969482422Q237.2 364.9999969482422 240.1 365.09999694824216Q243 365.1999969482422 247 365.1999969482422L247 365.1999969482422Q270.4 365.1999969482422 281.7 353.3999969482422Q293 341.59999694824216 293 320.7999969482422L293 320.7999969482422Q293 298.9999969482422 282.2 287.7999969482422Q271.4 276.59999694824216 248 276.59999694824216L248 276.59999694824216Q244.8 276.59999694824216 241.4 276.6999969482422Q238 276.7999969482422 235 277.1999969482422L235 277.1999969482422ZM325.2 320.7999969482422L325.2 320.7999969482422Q325.2 338.7999969482422 319.6 352.1999969482422Q314 365.59999694824216 303.7 374.3999969482422Q293.4 383.1999969482422 278.6 387.59999694824216Q263.8 391.9999969482422 245.4 391.9999969482422L245.4 391.9999969482422Q237 391.9999969482422 225.8 391.2999969482422Q214.6 390.59999694824216 203.8 388.3999969482422L203.8 388.3999969482422L203.8 253.39999694824218Q214.6 251.39999694824218 226.3 250.6999969482422Q238 249.9999969482422 246.4 249.9999969482422L246.4 249.9999969482422Q264.2 249.9999969482422 278.7 253.9999969482422Q293.2 257.9999969482422 303.6 266.59999694824216Q314 275.1999969482422 319.6 288.59999694824216Q325.2 301.9999969482422 325.2 320.7999969482422ZM382.4 390.1999969482422L351.2 390.1999969482422L351.2 251.5999969482422L444 251.5999969482422L444 277.7999969482422L382.4 277.7999969482422L382.4 306.7999969482422L437.2 306.7999969482422L437.2 332.9999969482422L382.4 332.9999969482422L382.4 390.1999969482422Z " fill="#ffffff"/><path id="SvgjsPath1010" d="M500 343.9999969482422L500 316.9999969482422L558 316.9999969482422L558 343.9999969482422L500 343.9999969482422ZM610.2 363.3999969482422L671.6 363.3999969482422L671.6 390.1999969482422L579 390.1999969482422L579 251.5999969482422L610.2 251.5999969482422L610.2 363.3999969482422ZM691.6 390.1999969482422L691.6 251.5999969482422L722.8 251.5999969482422L722.8 390.1999969482422L691.6 390.1999969482422ZM801 391.9999969482422L801 391.9999969482422Q789.6 391.9999969482422 778.3 391.2999969482422Q767 390.59999694824216 754.8 387.9999969482422L754.8 387.9999969482422L754.8 253.5999969482422Q764.4 251.79999694824218 775.8 250.89999694824218Q787.2 249.9999969482422 797 249.9999969482422L797 249.9999969482422Q810.2 249.9999969482422 821.3 251.89999694824218Q832.4 253.79999694824218 840.4 258.3999969482422Q848.4 262.9999969482422 852.9 270.4999969482422Q857.4 277.9999969482422 857.4 288.9999969482422L857.4 288.9999969482422Q857.4 305.59999694824216 841.4 315.1999969482422L841.4 315.1999969482422Q854.6 320.1999969482422 859.4 328.7999969482422Q864.2 337.3999969482422 864.2 348.1999969482422L864.2 348.1999969482422Q864.2 369.9999969482422 848.3 380.9999969482422Q832.4 391.9999969482422 801 391.9999969482422ZM804.8 329.7999969482422L785.2 329.7999969482422L785.2 365.59999694824216Q788.6 365.9999969482422 792.6 366.1999969482422Q796.6 366.3999969482422 801.4 366.3999969482422L801.4 366.3999969482422Q815.4 366.3999969482422 824 362.3999969482422Q832.6 358.3999969482422 832.6 347.59999694824216L832.6 347.59999694824216Q832.6 337.9999969482422 825.4 333.8999969482422Q818.2 329.7999969482422 804.8 329.7999969482422L804.8 329.7999969482422ZM785.2 275.7999969482422L785.2 305.9999969482422L800.4 305.9999969482422Q814.8 305.9999969482422 821 302.2999969482422Q827.2 298.59999694824216 827.2 290.3999969482422L827.2 290.3999969482422Q827.2 281.9999969482422 820.8 278.59999694824216Q814.4 275.1999969482422 802 275.1999969482422L802 275.1999969482422Q798 275.1999969482422 793.4 275.2999969482422Q788.8 275.3999969482422 785.2 275.7999969482422L785.2 275.7999969482422Z " fill="#ffffff"/></svg>