<svg id="SvgjsSvg1001" width="450" height="450" xmlns="http://www.w3.org/2000/svg" version="1.1" xmlns:xlink="http://www.w3.org/1999/xlink" xmlns:svgjs="http://svgjs.com/svgjs"><defs id="SvgjsDefs1002"/><rect id="SvgjsRect1008" width="450" height="450" x="0" y="0" fill="#d50000"/><path id="SvgjsPath1009" d="M126.79999923706055 270L126.79999923706055 270Q155.99999923706054 270 171.69999923706055 281.1Q187.39999923706054 292.2 187.39999923706054 314.2L187.39999923706054 314.2Q187.39999923706054 326.2 183.09999923706056 334.7Q178.79999923706055 343.2 170.69999923706055 348.5Q162.59999923706056 353.8 150.99999923706054 356.2Q139.39999923706054 358.6 124.79999923706055 358.6L124.79999923706055 358.6L109.39999923706054 358.6L109.39999923706054 410L89.99999923706055 410L89.99999923706055 273.4Q98.19999923706055 271.4 108.29999923706055 270.7Q118.39999923706054 270 126.79999923706055 270ZM128.39999923706054 287L128.39999923706054 287Q115.99999923706055 287 109.39999923706054 287.6L109.39999923706054 287.6L109.39999923706054 342L123.99999923706055 342Q133.99999923706054 342 141.99999923706054 340.7Q149.99999923706054 339.4 155.49999923706054 336.3Q160.99999923706054 333.2 163.99999923706054 327.8Q166.99999923706054 322.4 166.99999923706054 314L166.99999923706054 314Q166.99999923706054 306 163.89999923706054 300.8Q160.79999923706055 295.6 155.49999923706054 292.5Q150.19999923706055 289.4 143.19999923706055 288.2Q136.19999923706055 287 128.39999923706054 287ZM325.39999923706057 340.6L325.39999923706057 340.6Q325.39999923706057 358.6 319.79999923706055 371.9Q314.1999992370605 385.2 303.99999923706054 393.9Q293.79999923706055 402.6 279.59999923706056 406.9Q265.39999923706057 411.2 248.39999923706054 411.2L248.39999923706054 411.2Q239.99999923706054 411.2 229.89999923706054 410.5Q219.79999923706055 409.8 211.59999923706056 407.8L211.59999923706056 407.8L211.59999923706056 273.4Q219.79999923706055 271.4 229.89999923706054 270.7Q239.99999923706054 270 248.39999923706054 270L248.39999923706054 270Q265.39999923706057 270 279.59999923706056 274.3Q293.79999923706055 278.6 303.99999923706054 287.3Q314.1999992370605 296 319.79999923706055 309.3Q325.39999923706057 322.6 325.39999923706057 340.6ZM249.99999923706054 394.2L249.99999923706054 394.2Q277.59999923706056 394.2 291.1999992370605 380.1Q304.79999923706055 366 304.79999923706055 340.6L304.79999923706055 340.6Q304.79999923706055 315.2 291.1999992370605 301.1Q277.59999923706056 287 249.99999923706054 287L249.99999923706054 287Q241.79999923706055 287 237.29999923706055 287.2Q232.79999923706055 287.4 230.99999923706054 287.6L230.99999923706054 287.6L230.99999923706054 393.6Q232.79999923706055 393.8 237.29999923706055 394Q241.79999923706055 394.2 249.99999923706054 394.2ZM373.59999923706056 410L354.1999992370605 410L354.1999992370605 271.4L437.79999923706055 271.4L437.79999923706055 288L373.59999923706056 288L373.59999923706056 329.8L430.59999923706056 329.8L430.59999923706056 346.2L373.59999923706056 346.2L373.59999923706056 410Z " fill="#ffffff"/></svg>