<svg id="SvgjsSvg1001" width="450" height="450" xmlns="http://www.w3.org/2000/svg" version="1.1" xmlns:xlink="http://www.w3.org/1999/xlink" xmlns:svgjs="http://svgjs.com/svgjs"><defs id="SvgjsDefs1002"/><rect id="SvgjsRect1008" width="430" height="430" x="10" y="10" rx="35" ry="35" style="fill: rgba(0, 0, 0, 0); stroke: rgb(255, 255, 255); stroke-width: 10px;"/><path id="SvgjsPath1009" d="M111.79999923706055 270L111.79999923706055 270Q140.99999923706054 270 156.69999923706055 281.1Q172.39999923706054 292.2 172.39999923706054 314.2L172.39999923706054 314.2Q172.39999923706054 326.2 168.09999923706056 334.7Q163.79999923706055 343.2 155.69999923706055 348.5Q147.59999923706056 353.8 135.99999923706054 356.2Q124.39999923706054 358.6 109.79999923706055 358.6L109.79999923706055 358.6L94.39999923706054 358.6L94.39999923706054 410L74.99999923706055 410L74.99999923706055 273.4Q83.19999923706055 271.4 93.29999923706055 270.7Q103.39999923706054 270 111.79999923706055 270ZM113.39999923706054 287L113.39999923706054 287Q100.99999923706055 287 94.39999923706054 287.6L94.39999923706054 287.6L94.39999923706054 342L108.99999923706055 342Q118.99999923706055 342 126.99999923706055 340.7Q134.99999923706054 339.4 140.49999923706054 336.3Q145.99999923706054 333.2 148.99999923706054 327.8Q151.99999923706054 322.4 151.99999923706054 314L151.99999923706054 314Q151.99999923706054 306 148.89999923706054 300.8Q145.79999923706055 295.6 140.49999923706054 292.5Q135.19999923706055 289.4 128.19999923706055 288.2Q121.19999923706055 287 113.39999923706054 287ZM310.39999923706057 340.6L310.39999923706057 340.6Q310.39999923706057 358.6 304.79999923706055 371.9Q299.1999992370605 385.2 288.99999923706054 393.9Q278.79999923706055 402.6 264.59999923706056 406.9Q250.39999923706054 411.2 233.39999923706054 411.2L233.39999923706054 411.2Q224.99999923706054 411.2 214.89999923706054 410.5Q204.79999923706055 409.8 196.59999923706056 407.8L196.59999923706056 407.8L196.59999923706056 273.4Q204.79999923706055 271.4 214.89999923706054 270.7Q224.99999923706054 270 233.39999923706054 270L233.39999923706054 270Q250.39999923706054 270 264.59999923706056 274.3Q278.79999923706055 278.6 288.99999923706054 287.3Q299.1999992370605 296 304.79999923706055 309.3Q310.39999923706057 322.6 310.39999923706057 340.6ZM234.99999923706054 394.2L234.99999923706054 394.2Q262.59999923706056 394.2 276.1999992370605 380.1Q289.79999923706055 366 289.79999923706055 340.6L289.79999923706055 340.6Q289.79999923706055 315.2 276.1999992370605 301.1Q262.59999923706056 287 234.99999923706054 287L234.99999923706054 287Q226.79999923706055 287 222.29999923706055 287.2Q217.79999923706055 287.4 215.99999923706054 287.6L215.99999923706054 287.6L215.99999923706054 393.6Q217.79999923706055 393.8 222.29999923706055 394Q226.79999923706055 394.2 234.99999923706054 394.2ZM358.59999923706056 410L339.1999992370605 410L339.1999992370605 271.4L422.79999923706055 271.4L422.79999923706055 288L358.59999923706056 288L358.59999923706056 329.8L415.59999923706056 329.8L415.59999923706056 346.2L358.59999923706056 346.2L358.59999923706056 410Z " fill="#ffffff"/></svg>